<svg xmlns="http://www.w3.org/2000/svg" viewBox="0 0 10.51 10.51">
  <defs>
    <style>
      .cls-1 {
        fill: none;
      }

      .cls-2 {
        fill: rgb(45, 206, 137);
      }
    </style>
  </defs>
  <g id="Layer_2" data-name="Layer 2">
    <g id="Layer_1-2" data-name="Layer 1">
      <rect class="cls-1" width="10.51" height="10.51"/>
      <g>
        <path class="cls-2" d="M5.32,3.9V6.45h.49l.71-2.57a.6.6,0,0,0-1.2,0Z"/>
        <path class="cls-2" d="M5,3.9a.6.6,0,0,0-1.2,0l.71,2.57H5Z"/>
        <path class="cls-2" d="M3.68,3.41A.88.88,0,0,1,4.43,3a.9.9,0,0,1,.75.41.88.88,0,0,1,1.49,0A.9.9,0,0,1,7.34,3,2.24,2.24,0,0,0,5.18,1.36v-.3A2.53,2.53,0,0,1,7.65,3,.84.84,0,0,1,8,3.21a2.84,2.84,0,0,0-5.63,0,.89.89,0,0,1,1.32.2ZM4.86,1.08l0,.29a2.8,2.8,0,0,0-.28.06l-.07-.29A1.65,1.65,0,0,1,4.86,1.08Z"/>
        <rect class="cls-2" x="5.03" y="6.75" width="0.3" height="0.9"/>
        <path class="cls-2" d="M3.53,3.94v0a.6.6,0,0,0-.6-.6.61.61,0,0,0-.6.57L3.77,6.45h.46Z"/>
        <path class="cls-2" d="M7.42,3.3a.6.6,0,0,0-.6.6v0l-.7,2.51h.46L8,3.87A.61.61,0,0,0,7.42,3.3Z"/>
        <path class="cls-2" d="M5.62,7.8A.15.15,0,0,1,5.47,8H4.88a.15.15,0,0,1-.15-.15v-1h-.9V9.44H6.52V6.75h-.9Z"/>
      </g>
    </g>
  </g>
</svg>
