<svg xmlns="http://www.w3.org/2000/svg" viewBox="0 0 14.02 14.02">
  <defs>
    <style>
      .cls-1 {
        fill: rgb(45, 206, 137);
        fill-rule: evenodd;
      }
    </style>
  </defs>
  <g id="Layer_2" data-name="Layer 2">
    <g id="Layer_1-2" data-name="Layer 1">
      <path class="cls-1" d="M2.8,4.63V7.51a3.27,3.27,0,1,0,3.71,3.7H9.39a2.34,2.34,0,1,0,0-.93H6.51a3.29,3.29,0,0,0-.62-1.49L9.46,5.22a2.36,2.36,0,0,0,1.29.39A2.34,2.34,0,1,0,8.41,3.27,2.28,2.28,0,0,0,8.8,4.56L5.23,8.13a3.29,3.29,0,0,0-1.49-.62V4.63a2.34,2.34,0,1,0-.94,0Z"/>
    </g>
  </g>
</svg>
